<?xml version="1.0" encoding="UTF-8"?>
<svg version="1.1" xmlns="http://www.w3.org/2000/svg" width="370" height="370">
<path d="M0 0 C122.1 0 244.2 0 370 0 C370 122.1 370 244.2 370 370 C247.9 370 125.8 370 0 370 C0 247.9 0 125.8 0 0 Z " fill="#FFFFFF" transform="translate(0,0)"/>
<path d="M0 0 C3.3 0 6.6 0 10 0 C10 6.6 10 13.2 10 20 C16.6 20 23.2 20 30 20 C30 26.6 30 33.2 30 40 C33.3 40 36.6 40 40 40 C40 46.6 40 53.2 40 60 C36.7 60 33.4 60 30 60 C30 66.6 30 73.2 30 80 C33.3 80 36.6 80 40 80 C40 89.9 40 99.8 40 110 C43.3 110 46.6 110 50 110 C50 106.7 50 103.4 50 100 C59.9 100 69.8 100 80 100 C80 96.7 80 93.4 80 90 C86.6 90 93.2 90 100 90 C100 93.3 100 96.6 100 100 C96.7 100 93.4 100 90 100 C90 103.3 90 106.6 90 110 C96.6 110 103.2 110 110 110 C110 103.4 110 96.8 110 90 C113.3 90 116.6 90 120 90 C120 106.5 120 123 120 140 C123.3 140 126.6 140 130 140 C130 130.1 130 120.2 130 110 C133.3 110 136.6 110 140 110 C140 106.7 140 103.4 140 100 C136.7 100 133.4 100 130 100 C130 93.4 130 86.8 130 80 C126.7 80 123.4 80 120 80 C120 76.7 120 73.4 120 70 C126.6 70 133.2 70 140 70 C140 66.7 140 63.4 140 60 C143.3 60 146.6 60 150 60 C150 66.6 150 73.2 150 80 C146.7 80 143.4 80 140 80 C140 83.3 140 86.6 140 90 C143.3 90 146.6 90 150 90 C150 99.9 150 109.8 150 120 C146.7 120 143.4 120 140 120 C140 123.3 140 126.6 140 130 C143.3 130 146.6 130 150 130 C150 139.9 150 149.8 150 160 C146.7 160 143.4 160 140 160 C140 163.3 140 166.6 140 170 C136.7 170 133.4 170 130 170 C130 163.4 130 156.8 130 150 C123.4 150 116.8 150 110 150 C110 140.1 110 130.2 110 120 C103.4 120 96.8 120 90 120 C90 123.3 90 126.6 90 130 C93.3 130 96.6 130 100 130 C100 133.3 100 136.6 100 140 C96.7 140 93.4 140 90 140 C90 143.3 90 146.6 90 150 C93.3 150 96.6 150 100 150 C100 153.3 100 156.6 100 160 C106.6 160 113.2 160 120 160 C120 163.3 120 166.6 120 170 C116.7 170 113.4 170 110 170 C110 176.6 110 183.2 110 190 C113.3 190 116.6 190 120 190 C120 196.6 120 203.2 120 210 C116.7 210 113.4 210 110 210 C110 216.6 110 223.2 110 230 C113.3 230 116.6 230 120 230 C120 233.3 120 236.6 120 240 C110.1 240 100.2 240 90 240 C90 233.4 90 226.8 90 220 C83.4 220 76.8 220 70 220 C70 223.3 70 226.6 70 230 C66.7 230 63.4 230 60 230 C60 213.5 60 197 60 180 C56.7 180 53.4 180 50 180 C50 176.7 50 173.4 50 170 C56.6 170 63.2 170 70 170 C70 166.7 70 163.4 70 160 C66.7 160 63.4 160 60 160 C60 153.4 60 146.8 60 140 C56.7 140 53.4 140 50 140 C50 146.6 50 153.2 50 160 C46.7 160 43.4 160 40 160 C40 166.6 40 173.2 40 180 C36.7 180 33.4 180 30 180 C30 176.7 30 173.4 30 170 C26.7 170 23.4 170 20 170 C20 173.3 20 176.6 20 180 C16.7 180 13.4 180 10 180 C10 183.3 10 186.6 10 190 C3.4 190 -3.2 190 -10 190 C-10 193.3 -10 196.6 -10 200 C-13.3 200 -16.6 200 -20 200 C-20 203.3 -20 206.6 -20 210 C-23.3 210 -26.6 210 -30 210 C-30 213.3 -30 216.6 -30 220 C-23.4 220 -16.8 220 -10 220 C-10 223.3 -10 226.6 -10 230 C-6.7 230 -3.4 230 0 230 C0 233.3 0 236.6 0 240 C3.3 240 6.6 240 10 240 C10 243.3 10 246.6 10 250 C6.7 250 3.4 250 0 250 C0 253.3 0 256.6 0 260 C-13.2 260 -26.4 260 -40 260 C-40 256.7 -40 253.4 -40 250 C-43.3 250 -46.6 250 -50 250 C-50 253.3 -50 256.6 -50 260 C-53.3 260 -56.6 260 -60 260 C-60 250.1 -60 240.2 -60 230 C-56.7 230 -53.4 230 -50 230 C-50 226.7 -50 223.4 -50 220 C-53.3 220 -56.6 220 -60 220 C-60 203.5 -60 187 -60 170 C-56.7 170 -53.4 170 -50 170 C-50 166.7 -50 163.4 -50 160 C-46.7 160 -43.4 160 -40 160 C-40 156.7 -40 153.4 -40 150 C-46.6 150 -53.2 150 -60 150 C-60 143.4 -60 136.8 -60 130 C-63.3 130 -66.6 130 -70 130 C-70 133.3 -70 136.6 -70 140 C-76.6 140 -83.2 140 -90 140 C-90 149.9 -90 159.8 -90 170 C-93.3 170 -96.6 170 -100 170 C-100 163.4 -100 156.8 -100 150 C-103.3 150 -106.6 150 -110 150 C-110 156.6 -110 163.2 -110 170 C-116.6 170 -123.2 170 -130 170 C-130 166.7 -130 163.4 -130 160 C-126.7 160 -123.4 160 -120 160 C-120 156.7 -120 153.4 -120 150 C-123.3 150 -126.6 150 -130 150 C-130 140.1 -130 130.2 -130 120 C-126.7 120 -123.4 120 -120 120 C-120 110.1 -120 100.2 -120 90 C-123.3 90 -126.6 90 -130 90 C-130 86.7 -130 83.4 -130 80 C-133.3 80 -136.6 80 -140 80 C-140 76.7 -140 73.4 -140 70 C-136.7 70 -133.4 70 -130 70 C-130 66.7 -130 63.4 -130 60 C-133.3 60 -136.6 60 -140 60 C-140 56.7 -140 53.4 -140 50 C-130.1 50 -120.2 50 -110 50 C-110 53.3 -110 56.6 -110 60 C-113.3 60 -116.6 60 -120 60 C-120 66.6 -120 73.2 -120 80 C-116.7 80 -113.4 80 -110 80 C-110 83.3 -110 86.6 -110 90 C-106.7 90 -103.4 90 -100 90 C-100 93.3 -100 96.6 -100 100 C-93.4 100 -86.8 100 -80 100 C-80 96.7 -80 93.4 -80 90 C-83.3 90 -86.6 90 -90 90 C-90 86.7 -90 83.4 -90 80 C-93.3 80 -96.6 80 -100 80 C-100 70.1 -100 60.2 -100 50 C-86.8 50 -73.6 50 -60 50 C-60 43.4 -60 36.8 -60 30 C-56.7 30 -53.4 30 -50 30 C-50 33.3 -50 36.6 -50 40 C-46.7 40 -43.4 40 -40 40 C-40 36.7 -40 33.4 -40 30 C-36.7 30 -33.4 30 -30 30 C-30 36.6 -30 43.2 -30 50 C-26.7 50 -23.4 50 -20 50 C-20 43.4 -20 36.8 -20 30 C-16.7 30 -13.4 30 -10 30 C-10 23.4 -10 16.8 -10 10 C-6.7 10 -3.4 10 0 10 C0 6.7 0 3.4 0 0 Z " fill="#FFFFFF" transform="translate(180,70)"/>
<path d="M0 0 C6.6 0 13.2 0 20 0 C20 6.6 20 13.2 20 20 C23.3 20 26.6 20 30 20 C30 29.9 30 39.8 30 50 C33.3 50 36.6 50 40 50 C40 46.7 40 43.4 40 40 C49.9 40 59.8 40 70 40 C70 36.7 70 33.4 70 30 C76.6 30 83.2 30 90 30 C90 33.3 90 36.6 90 40 C86.7 40 83.4 40 80 40 C80 43.3 80 46.6 80 50 C86.6 50 93.2 50 100 50 C100 43.4 100 36.8 100 30 C103.3 30 106.6 30 110 30 C110 46.5 110 63 110 80 C113.3 80 116.6 80 120 80 C120 70.1 120 60.2 120 50 C123.3 50 126.6 50 130 50 C130 46.7 130 43.4 130 40 C126.7 40 123.4 40 120 40 C120 33.4 120 26.8 120 20 C116.7 20 113.4 20 110 20 C110 16.7 110 13.4 110 10 C116.6 10 123.2 10 130 10 C130 6.7 130 3.4 130 0 C133.3 0 136.6 0 140 0 C140 6.6 140 13.2 140 20 C136.7 20 133.4 20 130 20 C130 23.3 130 26.6 130 30 C133.3 30 136.6 30 140 30 C140 39.9 140 49.8 140 60 C136.7 60 133.4 60 130 60 C130 63.3 130 66.6 130 70 C133.3 70 136.6 70 140 70 C140 79.9 140 89.8 140 100 C136.7 100 133.4 100 130 100 C130 103.3 130 106.6 130 110 C126.7 110 123.4 110 120 110 C120 103.4 120 96.8 120 90 C113.4 90 106.8 90 100 90 C100 80.1 100 70.2 100 60 C93.4 60 86.8 60 80 60 C80 63.3 80 66.6 80 70 C83.3 70 86.6 70 90 70 C90 73.3 90 76.6 90 80 C86.7 80 83.4 80 80 80 C80 83.3 80 86.6 80 90 C83.3 90 86.6 90 90 90 C90 93.3 90 96.6 90 100 C96.6 100 103.2 100 110 100 C110 103.3 110 106.6 110 110 C106.7 110 103.4 110 100 110 C100 116.6 100 123.2 100 130 C103.3 130 106.6 130 110 130 C110 136.6 110 143.2 110 150 C106.7 150 103.4 150 100 150 C100 156.6 100 163.2 100 170 C103.3 170 106.6 170 110 170 C110 173.3 110 176.6 110 180 C100.1 180 90.2 180 80 180 C80 173.4 80 166.8 80 160 C73.4 160 66.8 160 60 160 C60 163.3 60 166.6 60 170 C56.7 170 53.4 170 50 170 C50 153.5 50 137 50 120 C46.7 120 43.4 120 40 120 C40 116.7 40 113.4 40 110 C46.6 110 53.2 110 60 110 C60 106.7 60 103.4 60 100 C56.7 100 53.4 100 50 100 C50 93.4 50 86.8 50 80 C46.7 80 43.4 80 40 80 C40 86.6 40 93.2 40 100 C36.7 100 33.4 100 30 100 C30 93.4 30 86.8 30 80 C26.7 80 23.4 80 20 80 C20 76.7 20 73.4 20 70 C13.4 70 6.8 70 0 70 C0 66.7 0 63.4 0 60 C-3.3 60 -6.6 60 -10 60 C-10 63.3 -10 66.6 -10 70 C-13.3 70 -16.6 70 -20 70 C-20 63.4 -20 56.8 -20 50 C-26.6 50 -33.2 50 -40 50 C-40 46.7 -40 43.4 -40 40 C-36.7 40 -33.4 40 -30 40 C-30 36.7 -30 33.4 -30 30 C-33.3 30 -36.6 30 -40 30 C-40 26.7 -40 23.4 -40 20 C-26.8 20 -13.6 20 0 20 C0 23.3 0 26.6 0 30 C-6.6 30 -13.2 30 -20 30 C-20 33.3 -20 36.6 -20 40 C-16.7 40 -13.4 40 -10 40 C-10 43.3 -10 46.6 -10 50 C-6.7 50 -3.4 50 0 50 C0 46.7 0 43.4 0 40 C6.6 40 13.2 40 20 40 C20 36.7 20 33.4 20 30 C16.7 30 13.4 30 10 30 C10 23.4 10 16.8 10 10 C6.7 10 3.4 10 0 10 C0 6.7 0 3.4 0 0 Z " fill="#000000" transform="translate(190,130)"/>
<path d="M0 0 C3.3 0 6.6 0 10 0 C10 6.6 10 13.2 10 20 C16.6 20 23.2 20 30 20 C30 26.6 30 33.2 30 40 C26.7 40 23.4 40 20 40 C20 43.3 20 46.6 20 50 C10.1 50 0.2 50 -10 50 C-10 53.3 -10 56.6 -10 60 C-13.3 60 -16.6 60 -20 60 C-20 63.3 -20 66.6 -20 70 C-26.6 70 -33.2 70 -40 70 C-40 73.3 -40 76.6 -40 80 C-43.3 80 -46.6 80 -50 80 C-50 86.6 -50 93.2 -50 100 C-59.9 100 -69.8 100 -80 100 C-80 96.7 -80 93.4 -80 90 C-83.3 90 -86.6 90 -90 90 C-90 86.7 -90 83.4 -90 80 C-93.3 80 -96.6 80 -100 80 C-100 70.1 -100 60.2 -100 50 C-86.8 50 -73.6 50 -60 50 C-60 43.4 -60 36.8 -60 30 C-56.7 30 -53.4 30 -50 30 C-50 33.3 -50 36.6 -50 40 C-46.7 40 -43.4 40 -40 40 C-40 36.7 -40 33.4 -40 30 C-36.7 30 -33.4 30 -30 30 C-30 36.6 -30 43.2 -30 50 C-26.7 50 -23.4 50 -20 50 C-20 43.4 -20 36.8 -20 30 C-16.7 30 -13.4 30 -10 30 C-10 23.4 -10 16.8 -10 10 C-6.7 10 -3.4 10 0 10 C0 6.7 0 3.4 0 0 Z " fill="#000000" transform="translate(180,70)"/>
<path d="M0 0 C23.1 0 46.2 0 70 0 C70 23.1 70 46.2 70 70 C46.9 70 23.8 70 0 70 C0 46.9 0 23.8 0 0 Z " fill="#FFFFFF" transform="translate(40,260)"/>
<path d="M0 0 C23.1 0 46.2 0 70 0 C70 23.1 70 46.2 70 70 C46.9 70 23.8 70 0 70 C0 46.9 0 23.8 0 0 Z " fill="#FFFFFF" transform="translate(260,40)"/>
<path d="M0 0 C23.1 0 46.2 0 70 0 C70 23.1 70 46.2 70 70 C46.9 70 23.8 70 0 70 C0 46.9 0 23.8 0 0 Z " fill="#FFFFFF" transform="translate(40,40)"/>
<path d="M0 0 C9.9 0 19.8 0 30 0 C30 3.3 30 6.6 30 10 C26.7 10 23.4 10 20 10 C20 16.6 20 23.2 20 30 C23.3 30 26.6 30 30 30 C30 33.3 30 36.6 30 40 C33.3 40 36.6 40 40 40 C40 43.3 40 46.6 40 50 C46.6 50 53.2 50 60 50 C60 53.3 60 56.6 60 60 C63.3 60 66.6 60 70 60 C70 63.3 70 66.6 70 70 C76.6 70 83.2 70 90 70 C90 73.3 90 76.6 90 80 C93.3 80 96.6 80 100 80 C100 86.6 100 93.2 100 100 C93.4 100 86.8 100 80 100 C80 93.4 80 86.8 80 80 C76.7 80 73.4 80 70 80 C70 83.3 70 86.6 70 90 C63.4 90 56.8 90 50 90 C50 99.9 50 109.8 50 120 C46.7 120 43.4 120 40 120 C40 113.4 40 106.8 40 100 C36.7 100 33.4 100 30 100 C30 106.6 30 113.2 30 120 C23.4 120 16.8 120 10 120 C10 116.7 10 113.4 10 110 C13.3 110 16.6 110 20 110 C20 106.7 20 103.4 20 100 C16.7 100 13.4 100 10 100 C10 90.1 10 80.2 10 70 C13.3 70 16.6 70 20 70 C20 60.1 20 50.2 20 40 C16.7 40 13.4 40 10 40 C10 36.7 10 33.4 10 30 C6.7 30 3.4 30 0 30 C0 26.7 0 23.4 0 20 C3.3 20 6.6 20 10 20 C10 16.7 10 13.4 10 10 C6.7 10 3.4 10 0 10 C0 6.7 0 3.4 0 0 Z " fill="#000000" transform="translate(40,120)"/>
<path d="M0 0 C6.6 0 13.2 0 20 0 C20 6.6 20 13.2 20 20 C23.3 20 26.6 20 30 20 C30 29.9 30 39.8 30 50 C36.6 50 43.2 50 50 50 C50 53.3 50 56.6 50 60 C53.3 60 56.6 60 60 60 C60 66.6 60 73.2 60 80 C53.4 80 46.8 80 40 80 C40 86.6 40 93.2 40 100 C36.7 100 33.4 100 30 100 C30 93.4 30 86.8 30 80 C26.7 80 23.4 80 20 80 C20 76.7 20 73.4 20 70 C13.4 70 6.8 70 0 70 C0 66.7 0 63.4 0 60 C-3.3 60 -6.6 60 -10 60 C-10 63.3 -10 66.6 -10 70 C-13.3 70 -16.6 70 -20 70 C-20 63.4 -20 56.8 -20 50 C-26.6 50 -33.2 50 -40 50 C-40 46.7 -40 43.4 -40 40 C-36.7 40 -33.4 40 -30 40 C-30 36.7 -30 33.4 -30 30 C-33.3 30 -36.6 30 -40 30 C-40 26.7 -40 23.4 -40 20 C-26.8 20 -13.6 20 0 20 C0 23.3 0 26.6 0 30 C-6.6 30 -13.2 30 -20 30 C-20 33.3 -20 36.6 -20 40 C-16.7 40 -13.4 40 -10 40 C-10 43.3 -10 46.6 -10 50 C-6.7 50 -3.4 50 0 50 C0 46.7 0 43.4 0 40 C6.6 40 13.2 40 20 40 C20 36.7 20 33.4 20 30 C16.7 30 13.4 30 10 30 C10 23.4 10 16.8 10 10 C6.7 10 3.4 10 0 10 C0 6.7 0 3.4 0 0 Z " fill="#000000" transform="translate(190,130)"/>
<path d="M0 0 C3.3 0 6.6 0 10 0 C10 9.9 10 19.8 10 30 C13.3 30 16.6 30 20 30 C20 33.3 20 36.6 20 40 C23.3 40 26.6 40 30 40 C30 43.3 30 46.6 30 50 C36.6 50 43.2 50 50 50 C50 53.3 50 56.6 50 60 C53.3 60 56.6 60 60 60 C60 63.3 60 66.6 60 70 C63.3 70 66.6 70 70 70 C70 73.3 70 76.6 70 80 C66.7 80 63.4 80 60 80 C60 83.3 60 86.6 60 90 C46.8 90 33.6 90 20 90 C20 86.7 20 83.4 20 80 C16.7 80 13.4 80 10 80 C10 83.3 10 86.6 10 90 C6.7 90 3.4 90 0 90 C0 80.1 0 70.2 0 60 C3.3 60 6.6 60 10 60 C10 56.7 10 53.4 10 50 C6.7 50 3.4 50 0 50 C0 33.5 0 17 0 0 Z " fill="#000000" transform="translate(120,240)"/>
<path d="M0 0 C3.3 0 6.6 0 10 0 C10 6.6 10 13.2 10 20 C6.7 20 3.4 20 0 20 C0 23.3 0 26.6 0 30 C3.3 30 6.6 30 10 30 C10 39.9 10 49.8 10 60 C6.7 60 3.4 60 0 60 C0 63.3 0 66.6 0 70 C3.3 70 6.6 70 10 70 C10 79.9 10 89.8 10 100 C6.7 100 3.4 100 0 100 C0 103.3 0 106.6 0 110 C-3.3 110 -6.6 110 -10 110 C-10 103.4 -10 96.8 -10 90 C-16.6 90 -23.2 90 -30 90 C-30 80.1 -30 70.2 -30 60 C-36.6 60 -43.2 60 -50 60 C-50 56.7 -50 53.4 -50 50 C-43.4 50 -36.8 50 -30 50 C-30 43.4 -30 36.8 -30 30 C-26.7 30 -23.4 30 -20 30 C-20 46.5 -20 63 -20 80 C-16.7 80 -13.4 80 -10 80 C-10 70.1 -10 60.2 -10 50 C-6.7 50 -3.4 50 0 50 C0 46.7 0 43.4 0 40 C-3.3 40 -6.6 40 -10 40 C-10 33.4 -10 26.8 -10 20 C-13.3 20 -16.6 20 -20 20 C-20 16.7 -20 13.4 -20 10 C-13.4 10 -6.8 10 0 10 C0 6.7 0 3.4 0 0 Z " fill="#000000" transform="translate(320,130)"/>
<path d="M0 0 C23.1 0 46.2 0 70 0 C70 23.1 70 46.2 70 70 C46.9 70 23.8 70 0 70 C0 46.9 0 23.8 0 0 Z M10 10 C10 26.5 10 43 10 60 C26.5 60 43 60 60 60 C60 43.5 60 27 60 10 C43.5 10 27 10 10 10 Z " fill="#000000" transform="translate(40,260)"/>
<path d="M0 0 C23.1 0 46.2 0 70 0 C70 23.1 70 46.2 70 70 C46.9 70 23.8 70 0 70 C0 46.9 0 23.8 0 0 Z M10 10 C10 26.5 10 43 10 60 C26.5 60 43 60 60 60 C60 43.5 60 27 60 10 C43.5 10 27 10 10 10 Z " fill="#000000" transform="translate(260,40)"/>
<path d="M0 0 C23.1 0 46.2 0 70 0 C70 23.1 70 46.2 70 70 C46.9 70 23.8 70 0 70 C0 46.9 0 23.8 0 0 Z M10 10 C10 26.5 10 43 10 60 C26.5 60 43 60 60 60 C60 43.5 60 27 60 10 C43.5 10 27 10 10 10 Z " fill="#000000" transform="translate(40,40)"/>
<path d="M0 0 C3.3 0 6.6 0 10 0 C10 3.3 10 6.6 10 10 C13.3 10 16.6 10 20 10 C20 19.9 20 29.8 20 40 C23.3 40 26.6 40 30 40 C30 43.3 30 46.6 30 50 C33.3 50 36.6 50 40 50 C40 53.3 40 56.6 40 60 C46.6 60 53.2 60 60 60 C60 63.3 60 66.6 60 70 C50.1 70 40.2 70 30 70 C30 66.7 30 63.4 30 60 C23.4 60 16.8 60 10 60 C10 63.3 10 66.6 10 70 C6.7 70 3.4 70 0 70 C0 60.1 0 50.2 0 40 C-3.3 40 -6.6 40 -10 40 C-10 36.7 -10 33.4 -10 30 C-13.3 30 -16.6 30 -20 30 C-20 23.4 -20 16.8 -20 10 C-16.7 10 -13.4 10 -10 10 C-10 13.3 -10 16.6 -10 20 C-6.7 20 -3.4 20 0 20 C0 13.4 0 6.8 0 0 Z " fill="#000000" transform="translate(210,260)"/>
<path d="M0 0 C9.9 0 19.8 0 30 0 C30 3.3 30 6.6 30 10 C33.3 10 36.6 10 40 10 C40 13.3 40 16.6 40 20 C30.1 20 20.2 20 10 20 C10 23.3 10 26.6 10 30 C6.7 30 3.4 30 0 30 C0 33.3 0 36.6 0 40 C-3.3 40 -6.6 40 -10 40 C-10 43.3 -10 46.6 -10 50 C-13.3 50 -16.6 50 -20 50 C-20 46.7 -20 43.4 -20 40 C-23.3 40 -26.6 40 -30 40 C-30 36.7 -30 33.4 -30 30 C-33.3 30 -36.6 30 -40 30 C-40 26.7 -40 23.4 -40 20 C-33.4 20 -26.8 20 -20 20 C-20 16.7 -20 13.4 -20 10 C-13.4 10 -6.8 10 0 10 C0 6.7 0 3.4 0 0 Z " fill="#000000" transform="translate(160,40)"/>
<path d="M0 0 C6.6 0 13.2 0 20 0 C20 3.3 20 6.6 20 10 C23.3 10 26.6 10 30 10 C30 13.3 30 16.6 30 20 C36.6 20 43.2 20 50 20 C50 23.3 50 26.6 50 30 C53.3 30 56.6 30 60 30 C60 36.6 60 43.2 60 50 C53.4 50 46.8 50 40 50 C40 43.4 40 36.8 40 30 C36.7 30 33.4 30 30 30 C30 33.3 30 36.6 30 40 C20.1 40 10.2 40 0 40 C0 26.8 0 13.6 0 0 Z " fill="#000000" transform="translate(80,170)"/>
<path d="M0 0 C6.6 0 13.2 0 20 0 C20 3.3 20 6.6 20 10 C23.3 10 26.6 10 30 10 C30 13.3 30 16.6 30 20 C39.9 20 49.8 20 60 20 C60 26.6 60 33.2 60 40 C56.7 40 53.4 40 50 40 C50 36.7 50 33.4 50 30 C46.7 30 43.4 30 40 30 C40 33.3 40 36.6 40 40 C36.7 40 33.4 40 30 40 C30 43.3 30 46.6 30 50 C23.4 50 16.8 50 10 50 C10 40.1 10 30.2 10 20 C6.7 20 3.4 20 0 20 C0 13.4 0 6.8 0 0 Z " fill="#000000" transform="translate(160,210)"/>
<path d="M0 0 C13.2 0 26.4 0 40 0 C40 3.3 40 6.6 40 10 C33.4 10 26.8 10 20 10 C20 13.3 20 16.6 20 20 C23.3 20 26.6 20 30 20 C30 23.3 30 26.6 30 30 C33.3 30 36.6 30 40 30 C40 33.3 40 36.6 40 40 C36.7 40 33.4 40 30 40 C30 43.3 30 46.6 30 50 C26.7 50 23.4 50 20 50 C20 43.4 20 36.8 20 30 C13.4 30 6.8 30 0 30 C0 26.7 0 23.4 0 20 C3.3 20 6.6 20 10 20 C10 16.7 10 13.4 10 10 C6.7 10 3.4 10 0 10 C0 6.7 0 3.4 0 0 Z " fill="#000000" transform="translate(150,150)"/>
<path d="M0 0 C3.3 0 6.6 0 10 0 C10 3.3 10 6.6 10 10 C13.3 10 16.6 10 20 10 C20 6.7 20 3.4 20 0 C23.3 0 26.6 0 30 0 C30 3.3 30 6.6 30 10 C33.3 10 36.6 10 40 10 C40 13.3 40 16.6 40 20 C46.6 20 53.2 20 60 20 C60 23.3 60 26.6 60 30 C50.1 30 40.2 30 30 30 C30 26.7 30 23.4 30 20 C23.4 20 16.8 20 10 20 C10 23.3 10 26.6 10 30 C6.7 30 3.4 30 0 30 C0 20.1 0 10.2 0 0 Z " fill="#000000" transform="translate(210,300)"/>
<path d="M0 0 C9.9 0 19.8 0 30 0 C30 9.9 30 19.8 30 30 C20.1 30 10.2 30 0 30 C0 20.1 0 10.2 0 0 Z " fill="#000000" transform="translate(60,280)"/>
<path d="M0 0 C9.9 0 19.8 0 30 0 C30 9.9 30 19.8 30 30 C20.1 30 10.2 30 0 30 C0 20.1 0 10.2 0 0 Z " fill="#FFFFFF" transform="translate(250,250)"/>
<path d="M0 0 C3.3 0 6.6 0 10 0 C10 16.5 10 33 10 50 C13.3 50 16.6 50 20 50 C20 53.3 20 56.6 20 60 C13.4 60 6.8 60 0 60 C0 50.1 0 40.2 0 30 C-6.6 30 -13.2 30 -20 30 C-20 26.7 -20 23.4 -20 20 C-13.4 20 -6.8 20 0 20 C0 13.4 0 6.8 0 0 Z " fill="#000000" transform="translate(290,160)"/>
<path d="M0 0 C9.9 0 19.8 0 30 0 C30 9.9 30 19.8 30 30 C20.1 30 10.2 30 0 30 C0 20.1 0 10.2 0 0 Z " fill="#000000" transform="translate(280,60)"/>
<path d="M0 0 C9.9 0 19.8 0 30 0 C30 9.9 30 19.8 30 30 C20.1 30 10.2 30 0 30 C0 20.1 0 10.2 0 0 Z " fill="#000000" transform="translate(60,60)"/>
<path d="M0 0 C9.9 0 19.8 0 30 0 C30 3.3 30 6.6 30 10 C33.3 10 36.6 10 40 10 C40 16.6 40 23.2 40 30 C33.4 30 26.8 30 20 30 C20 23.4 20 16.8 20 10 C16.7 10 13.4 10 10 10 C10 13.3 10 16.6 10 20 C6.7 20 3.4 20 0 20 C0 13.4 0 6.8 0 0 Z " fill="#000000" transform="translate(210,40)"/>
<path d="M0 0 C3.3 0 6.6 0 10 0 C10 9.9 10 19.8 10 30 C13.3 30 16.6 30 20 30 C20 36.6 20 43.2 20 50 C13.4 50 6.8 50 0 50 C0 33.5 0 17 0 0 Z " fill="#000000" transform="translate(120,240)"/>
<path d="M0 0 C9.9 0 19.8 0 30 0 C30 6.6 30 13.2 30 20 C26.7 20 23.4 20 20 20 C20 23.3 20 26.6 20 30 C16.7 30 13.4 30 10 30 C10 23.4 10 16.8 10 10 C6.7 10 3.4 10 0 10 C0 6.7 0 3.4 0 0 Z " fill="#000000" transform="translate(300,250)"/>
<path d="M0 0 C6.6 0 13.2 0 20 0 C20 3.3 20 6.6 20 10 C23.3 10 26.6 10 30 10 C30 16.6 30 23.2 30 30 C23.4 30 16.8 30 10 30 C10 23.4 10 16.8 10 10 C6.7 10 3.4 10 0 10 C0 6.7 0 3.4 0 0 Z " fill="#000000" transform="translate(110,190)"/>
<path d="M0 0 C3.3 0 6.6 0 10 0 C10 3.3 10 6.6 10 10 C13.3 10 16.6 10 20 10 C20 16.6 20 23.2 20 30 C16.7 30 13.4 30 10 30 C10 26.7 10 23.4 10 20 C3.4 20 -3.2 20 -10 20 C-10 16.7 -10 13.4 -10 10 C-6.7 10 -3.4 10 0 10 C0 6.7 0 3.4 0 0 Z " fill="#FFFFFF" transform="translate(230,180)"/>
<path d="M0 0 C6.6 0 13.2 0 20 0 C20 9.9 20 19.8 20 30 C13.4 30 6.8 30 0 30 C0 26.7 0 23.4 0 20 C3.3 20 6.6 20 10 20 C10 16.7 10 13.4 10 10 C6.7 10 3.4 10 0 10 C0 6.7 0 3.4 0 0 Z " fill="#000000" transform="translate(250,120)"/>
<path d="M0 0 C3.3 0 6.6 0 10 0 C10 9.9 10 19.8 10 30 C6.7 30 3.4 30 0 30 C0 26.7 0 23.4 0 20 C-3.3 20 -6.6 20 -10 20 C-10 16.7 -10 13.4 -10 10 C-6.7 10 -3.4 10 0 10 C0 6.7 0 3.4 0 0 Z " fill="#000000" transform="translate(140,220)"/>
<path d="M0 0 C3.3 0 6.6 0 10 0 C10 3.3 10 6.6 10 10 C13.3 10 16.6 10 20 10 C20 13.3 20 16.6 20 20 C13.4 20 6.8 20 0 20 C0 13.4 0 6.8 0 0 Z " fill="#000000" transform="translate(310,310)"/>
<path d="M0 0 C3.3 0 6.6 0 10 0 C10 9.9 10 19.8 10 30 C6.7 30 3.4 30 0 30 C0 20.1 0 10.2 0 0 Z " fill="#000000" transform="translate(320,280)"/>
<path d="M0 0 C3.3 0 6.6 0 10 0 C10 6.6 10 13.2 10 20 C3.4 20 -3.2 20 -10 20 C-10 16.7 -10 13.4 -10 10 C-6.7 10 -3.4 10 0 10 C0 6.7 0 3.4 0 0 Z " fill="#000000" transform="translate(60,220)"/>
<path d="M0 0 C3.3 0 6.6 0 10 0 C10 9.9 10 19.8 10 30 C6.7 30 3.4 30 0 30 C0 20.1 0 10.2 0 0 Z " fill="#FFFFFF" transform="translate(80,180)"/>
<path d="M0 0 C6.6 0 13.2 0 20 0 C20 6.6 20 13.2 20 20 C16.7 20 13.4 20 10 20 C10 16.7 10 13.4 10 10 C6.7 10 3.4 10 0 10 C0 6.7 0 3.4 0 0 Z " fill="#000000" transform="translate(230,90)"/>
<path d="M0 0 C6.6 0 13.2 0 20 0 C20 3.3 20 6.6 20 10 C13.4 10 6.8 10 0 10 C0 6.7 0 3.4 0 0 Z " fill="#000000" transform="translate(100,220)"/>
<path d="M0 0 C3.3 0 6.6 0 10 0 C10 6.6 10 13.2 10 20 C6.7 20 3.4 20 0 20 C0 13.4 0 6.8 0 0 Z " fill="#FFFFFF" transform="translate(70,220)"/>
<path d="M0 0 C6.6 0 13.2 0 20 0 C20 3.3 20 6.6 20 10 C13.4 10 6.8 10 0 10 C0 6.7 0 3.4 0 0 Z " fill="#000000" transform="translate(140,190)"/>
<path d="M0 0 C6.6 0 13.2 0 20 0 C20 3.3 20 6.6 20 10 C13.4 10 6.8 10 0 10 C0 6.7 0 3.4 0 0 Z " fill="#FFFFFF" transform="translate(190,180)"/>
<path d="M0 0 C6.6 0 13.2 0 20 0 C20 3.3 20 6.6 20 10 C13.4 10 6.8 10 0 10 C0 6.7 0 3.4 0 0 Z " fill="#000000" transform="translate(230,150)"/>
<path d="M0 0 C3.3 0 6.6 0 10 0 C10 6.6 10 13.2 10 20 C6.7 20 3.4 20 0 20 C0 13.4 0 6.8 0 0 Z " fill="#FFFFFF" transform="translate(130,120)"/>
<path d="M0 0 C3.3 0 6.6 0 10 0 C10 6.6 10 13.2 10 20 C6.7 20 3.4 20 0 20 C0 13.4 0 6.8 0 0 Z " fill="#000000" transform="translate(210,110)"/>
<path d="M0 0 C3.3 0 6.6 0 10 0 C10 3.3 10 6.6 10 10 C6.7 10 3.4 10 0 10 C0 6.7 0 3.4 0 0 Z " fill="#000000" transform="translate(290,320)"/>
<path d="M0 0 C3.3 0 6.6 0 10 0 C10 3.3 10 6.6 10 10 C6.7 10 3.4 10 0 10 C0 6.7 0 3.4 0 0 Z " fill="#FFFFFF" transform="translate(220,300)"/>
<path d="M0 0 C3.3 0 6.6 0 10 0 C10 3.3 10 6.6 10 10 C6.7 10 3.4 10 0 10 C0 6.7 0 3.4 0 0 Z " fill="#FFFFFF" transform="translate(150,300)"/>
<path d="M0 0 C3.3 0 6.6 0 10 0 C10 3.3 10 6.6 10 10 C6.7 10 3.4 10 0 10 C0 6.7 0 3.4 0 0 Z " fill="#000000" transform="translate(300,290)"/>
<path d="M0 0 C3.3 0 6.6 0 10 0 C10 3.3 10 6.6 10 10 C6.7 10 3.4 10 0 10 C0 6.7 0 3.4 0 0 Z " fill="#FFFFFF" transform="translate(210,290)"/>
<path d="M0 0 C3.3 0 6.6 0 10 0 C10 3.3 10 6.6 10 10 C6.7 10 3.4 10 0 10 C0 6.7 0 3.4 0 0 Z " fill="#FFFFFF" transform="translate(130,280)"/>
<path d="M0 0 C3.3 0 6.6 0 10 0 C10 3.3 10 6.6 10 10 C6.7 10 3.4 10 0 10 C0 6.7 0 3.4 0 0 Z " fill="#000000" transform="translate(170,270)"/>
<path d="M0 0 C3.3 0 6.6 0 10 0 C10 3.3 10 6.6 10 10 C6.7 10 3.4 10 0 10 C0 6.7 0 3.4 0 0 Z " fill="#000000" transform="translate(150,270)"/>
<path d="M0 0 C3.3 0 6.6 0 10 0 C10 3.3 10 6.6 10 10 C6.7 10 3.4 10 0 10 C0 6.7 0 3.4 0 0 Z " fill="#000000" transform="translate(260,260)"/>
<path d="M0 0 C3.3 0 6.6 0 10 0 C10 3.3 10 6.6 10 10 C6.7 10 3.4 10 0 10 C0 6.7 0 3.4 0 0 Z " fill="#000000" transform="translate(160,260)"/>
<path d="M0 0 C3.3 0 6.6 0 10 0 C10 3.3 10 6.6 10 10 C6.7 10 3.4 10 0 10 C0 6.7 0 3.4 0 0 Z " fill="#000000" transform="translate(100,240)"/>
<path d="M0 0 C3.3 0 6.6 0 10 0 C10 3.3 10 6.6 10 10 C6.7 10 3.4 10 0 10 C0 6.7 0 3.4 0 0 Z " fill="#000000" transform="translate(70,240)"/>
<path d="M0 0 C3.3 0 6.6 0 10 0 C10 3.3 10 6.6 10 10 C6.7 10 3.4 10 0 10 C0 6.7 0 3.4 0 0 Z " fill="#000000" transform="translate(40,240)"/>
<path d="M0 0 C3.3 0 6.6 0 10 0 C10 3.3 10 6.6 10 10 C6.7 10 3.4 10 0 10 C0 6.7 0 3.4 0 0 Z " fill="#FFFFFF" transform="translate(270,230)"/>
<path d="M0 0 C3.3 0 6.6 0 10 0 C10 3.3 10 6.6 10 10 C6.7 10 3.4 10 0 10 C0 6.7 0 3.4 0 0 Z " fill="#FFFFFF" transform="translate(180,230)"/>
<path d="M0 0 C3.3 0 6.6 0 10 0 C10 3.3 10 6.6 10 10 C6.7 10 3.4 10 0 10 C0 6.7 0 3.4 0 0 Z " fill="#FFFFFF" transform="translate(250,220)"/>
<path d="M0 0 C3.3 0 6.6 0 10 0 C10 3.3 10 6.6 10 10 C6.7 10 3.4 10 0 10 C0 6.7 0 3.4 0 0 Z " fill="#000000" transform="translate(40,220)"/>
<path d="M0 0 C3.3 0 6.6 0 10 0 C10 3.3 10 6.6 10 10 C6.7 10 3.4 10 0 10 C0 6.7 0 3.4 0 0 Z " fill="#FFFFFF" transform="translate(310,210)"/>
<path d="M0 0 C3.3 0 6.6 0 10 0 C10 3.3 10 6.6 10 10 C6.7 10 3.4 10 0 10 C0 6.7 0 3.4 0 0 Z " fill="#000000" transform="translate(200,210)"/>
<path d="M0 0 C3.3 0 6.6 0 10 0 C10 3.3 10 6.6 10 10 C6.7 10 3.4 10 0 10 C0 6.7 0 3.4 0 0 Z " fill="#FFFFFF" transform="translate(60,210)"/>
<path d="M0 0 C3.3 0 6.6 0 10 0 C10 3.3 10 6.6 10 10 C6.7 10 3.4 10 0 10 C0 6.7 0 3.4 0 0 Z " fill="#FFFFFF" transform="translate(100,190)"/>
<path d="M0 0 C3.3 0 6.6 0 10 0 C10 3.3 10 6.6 10 10 C6.7 10 3.4 10 0 10 C0 6.7 0 3.4 0 0 Z " fill="#FFFFFF" transform="translate(60,190)"/>
<path d="M0 0 C3.3 0 6.6 0 10 0 C10 3.3 10 6.6 10 10 C6.7 10 3.4 10 0 10 C0 6.7 0 3.4 0 0 Z " fill="#FFFFFF" transform="translate(260,180)"/>
<path d="M0 0 C3.3 0 6.6 0 10 0 C10 3.3 10 6.6 10 10 C6.7 10 3.4 10 0 10 C0 6.7 0 3.4 0 0 Z " fill="#000000" transform="translate(40,180)"/>
<path d="M0 0 C3.3 0 6.6 0 10 0 C10 3.3 10 6.6 10 10 C6.7 10 3.4 10 0 10 C0 6.7 0 3.4 0 0 Z " fill="#FFFFFF" transform="translate(70,170)"/>
<path d="M0 0 C3.3 0 6.6 0 10 0 C10 3.3 10 6.6 10 10 C6.7 10 3.4 10 0 10 C0 6.7 0 3.4 0 0 Z " fill="#000000" transform="translate(40,160)"/>
<path d="M0 0 C3.3 0 6.6 0 10 0 C10 3.3 10 6.6 10 10 C6.7 10 3.4 10 0 10 C0 6.7 0 3.4 0 0 Z " fill="#FFFFFF" transform="translate(100,150)"/>
<path d="M0 0 C3.3 0 6.6 0 10 0 C10 3.3 10 6.6 10 10 C6.7 10 3.4 10 0 10 C0 6.7 0 3.4 0 0 Z " fill="#000000" transform="translate(280,140)"/>
<path d="M0 0 C3.3 0 6.6 0 10 0 C10 3.3 10 6.6 10 10 C6.7 10 3.4 10 0 10 C0 6.7 0 3.4 0 0 Z " fill="#000000" transform="translate(220,140)"/>
<path d="M0 0 C3.3 0 6.6 0 10 0 C10 3.3 10 6.6 10 10 C6.7 10 3.4 10 0 10 C0 6.7 0 3.4 0 0 Z " fill="#000000" transform="translate(130,140)"/>
<path d="M0 0 C3.3 0 6.6 0 10 0 C10 3.3 10 6.6 10 10 C6.7 10 3.4 10 0 10 C0 6.7 0 3.4 0 0 Z " fill="#FFFFFF" transform="translate(120,140)"/>
<path d="M0 0 C3.3 0 6.6 0 10 0 C10 3.3 10 6.6 10 10 C6.7 10 3.4 10 0 10 C0 6.7 0 3.4 0 0 Z " fill="#000000" transform="translate(290,130)"/>
<path d="M0 0 C3.3 0 6.6 0 10 0 C10 3.3 10 6.6 10 10 C6.7 10 3.4 10 0 10 C0 6.7 0 3.4 0 0 Z " fill="#000000" transform="translate(240,130)"/>
<path d="M0 0 C3.3 0 6.6 0 10 0 C10 3.3 10 6.6 10 10 C6.7 10 3.4 10 0 10 C0 6.7 0 3.4 0 0 Z " fill="#000000" transform="translate(170,130)"/>
<path d="M0 0 C3.3 0 6.6 0 10 0 C10 3.3 10 6.6 10 10 C6.7 10 3.4 10 0 10 C0 6.7 0 3.4 0 0 Z " fill="#FFFFFF" transform="translate(100,130)"/>
<path d="M0 0 C3.3 0 6.6 0 10 0 C10 3.3 10 6.6 10 10 C6.7 10 3.4 10 0 10 C0 6.7 0 3.4 0 0 Z " fill="#000000" transform="translate(300,120)"/>
<path d="M0 0 C3.3 0 6.6 0 10 0 C10 3.3 10 6.6 10 10 C6.7 10 3.4 10 0 10 C0 6.7 0 3.4 0 0 Z " fill="#000000" transform="translate(220,100)"/>
<path d="M0 0 C3.3 0 6.6 0 10 0 C10 3.3 10 6.6 10 10 C6.7 10 3.4 10 0 10 C0 6.7 0 3.4 0 0 Z " fill="#FFFFFF" transform="translate(190,100)"/>
<path d="M0 0 C3.3 0 6.6 0 10 0 C10 3.3 10 6.6 10 10 C6.7 10 3.4 10 0 10 C0 6.7 0 3.4 0 0 Z " fill="#FFFFFF" transform="translate(170,100)"/>
<path d="M0 0 C3.3 0 6.6 0 10 0 C10 3.3 10 6.6 10 10 C6.7 10 3.4 10 0 10 C0 6.7 0 3.4 0 0 Z " fill="#000000" transform="translate(130,90)"/>
<path d="M0 0 C3.3 0 6.6 0 10 0 C10 3.3 10 6.6 10 10 C6.7 10 3.4 10 0 10 C0 6.7 0 3.4 0 0 Z " fill="#000000" transform="translate(210,80)"/>
<path d="M0 0 C3.3 0 6.6 0 10 0 C10 3.3 10 6.6 10 10 C6.7 10 3.4 10 0 10 C0 6.7 0 3.4 0 0 Z " fill="#000000" transform="translate(220,70)"/>
<path d="M0 0 C3.3 0 6.6 0 10 0 C10 3.3 10 6.6 10 10 C6.7 10 3.4 10 0 10 C0 6.7 0 3.4 0 0 Z " fill="#FFFFFF" transform="translate(150,60)"/>
<path d="M0 0 C3.3 0 6.6 0 10 0 C10 3.3 10 6.6 10 10 C6.7 10 3.4 10 0 10 C0 6.7 0 3.4 0 0 Z " fill="#000000" transform="translate(130,40)"/>
</svg>
